<svg width="16" height="14" viewBox="0 0 16 14" fill="none" xmlns="http://www.w3.org/2000/svg">
<path d="M10.8299 13.8218L16.8349 7.44545C16.8349 7.44545 16.8709 7.38182 16.8949 7.34364C16.9189 7.30545 16.943 7.28 16.955 7.24182C17.015 7.08909 17.015 6.91091 16.955 6.74545C16.943 6.70727 16.9069 6.68182 16.8949 6.64364C16.8709 6.60545 16.8589 6.56727 16.8349 6.54182L10.8299 0.190909C10.5897 -0.0636364 10.2173 -0.0636364 9.97715 0.190909C9.73695 0.445455 9.73695 0.84 9.97715 1.09455L14.9613 6.36364H-0.3995C-0.73578 6.36364 -1 6.64364 -1 7C-1 7.35636 -0.73578 7.63636 -0.3995 7.63636H14.9613L9.97715 12.9182C9.85705 13.0455 9.797 13.2109 9.797 13.3636C9.797 13.5164 9.85705 13.6945 9.97715 13.8091C10.2173 14.0636 10.5897 14.0636 10.8299 13.8091V13.8218Z" fill="white"/>
</svg>
