<svg width="24" height="24" viewBox="0 0 24 24" fill="none" xmlns="http://www.w3.org/2000/svg">
<path fill-rule="evenodd" clip-rule="evenodd" d="M20.5607 3.43934C21.1464 4.02513 21.1464 4.97487 20.5607 5.56066L5.56066 20.5607C4.97487 21.1464 4.02513 21.1464 3.43934 20.5607C2.85355 19.9749 2.85355 19.0251 3.43934 18.4393L18.4393 3.43934C19.0251 2.85355 19.9749 2.85355 20.5607 3.43934Z" fill="#00485B"/>
<path fill-rule="evenodd" clip-rule="evenodd" d="M3.43934 3.43934C4.02513 2.85355 4.97487 2.85355 5.56066 3.43934L20.5607 18.4393C21.1464 19.0251 21.1464 19.9749 20.5607 20.5607C19.9749 21.1464 19.0251 21.1464 18.4393 20.5607L3.43934 5.56066C2.85355 4.97487 2.85355 4.02513 3.43934 3.43934Z" fill="#00485B"/>
</svg>
