<svg width="20" height="20" viewBox="0 0 20 20" fill="none" xmlns="http://www.w3.org/2000/svg">
<path d="M14.6712 0H5.32878C2.39112 0 0 2.39112 0 5.32878V14.6541C0 17.5918 2.39112 20 5.32878 20H14.6541C17.5918 20 20 17.6089 20 14.6712V5.32878C20 2.39112 17.6089 0 14.6712 0ZM18.6336 14.6712C18.6336 16.8574 16.8574 18.6336 14.6541 18.6336H5.32878C3.14261 18.6336 1.34927 16.8574 1.34927 14.6541V5.32878C1.36635 3.14261 3.14261 1.36635 5.32878 1.36635H14.6541C16.8403 1.36635 18.6166 3.14261 18.6166 5.34586V14.6712H18.6336Z" fill="#834D1D"/>
<path d="M15.1153 4.11614C14.7395 4.11614 14.3467 4.50897 14.3467 4.88471C14.3467 5.26046 14.7395 5.65329 15.1153 5.65329C15.491 5.65329 15.8839 5.26046 15.8839 4.88471C15.8839 4.50897 15.491 4.11614 15.1153 4.11614Z" fill="#834D1D"/>
<path d="M7.10504 7.10504C5.49957 8.7105 5.49957 11.3066 7.10504 12.895C7.87361 13.6635 8.91546 14.0905 10.0085 14.0905C11.1016 14.0905 12.1264 13.6635 12.912 12.895C14.5175 11.2895 14.5175 8.69342 12.912 7.10504C11.3066 5.51665 8.7105 5.49957 7.12212 7.10504H7.10504ZM11.9385 11.9385C10.9137 12.9804 9.10333 12.9804 8.07857 11.9385C7.01964 10.8796 7.01964 9.13749 8.07857 8.07857C8.60803 7.5491 9.30828 7.27583 10.0085 7.27583C10.7088 7.27583 11.4091 7.5491 11.9385 8.07857C12.9974 9.13749 12.9974 10.8796 11.9385 11.9385Z" fill="#834D1D"/>
</svg>
